<mxfile host="app.diagrams.net" modified="2024-02-15T11:27:17.543Z" agent="Mozilla/5.0 (Windows NT 10.0; Win64; x64) AppleWebKit/537.36 (KHTML, like Gecko) Chrome/121.0.0.0 Safari/537.36" etag="5nDi4onLyzE-NdbXAoPn" version="22.1.18" type="device">
  <diagram name="Page-1" id="Pb-g-ttcNi9E8Xs-l65I">
    <mxGraphModel dx="1050" dy="522" grid="1" gridSize="10" guides="1" tooltips="1" connect="1" arrows="1" fold="1" page="1" pageScale="1" pageWidth="850" pageHeight="1100" math="0" shadow="0">
      <root>
        <mxCell id="0" />
        <mxCell id="1" parent="0" />
        <mxCell id="gw6Gdv-FfUhg9unz1Tcw-1" value="client" style="rounded=1;whiteSpace=wrap;html=1;" parent="1" vertex="1">
          <mxGeometry x="80" y="90" width="120" height="60" as="geometry" />
        </mxCell>
        <mxCell id="gw6Gdv-FfUhg9unz1Tcw-2" value="client" style="rounded=1;whiteSpace=wrap;html=1;" parent="1" vertex="1">
          <mxGeometry x="80" y="170" width="120" height="60" as="geometry" />
        </mxCell>
        <mxCell id="gw6Gdv-FfUhg9unz1Tcw-3" value="client" style="rounded=1;whiteSpace=wrap;html=1;" parent="1" vertex="1">
          <mxGeometry x="80" y="250" width="120" height="60" as="geometry" />
        </mxCell>
        <mxCell id="gw6Gdv-FfUhg9unz1Tcw-7" style="edgeStyle=orthogonalEdgeStyle;rounded=0;orthogonalLoop=1;jettySize=auto;html=1;exitX=1;exitY=0.5;exitDx=0;exitDy=0;startArrow=classic;startFill=1;" parent="1" source="gw6Gdv-FfUhg9unz1Tcw-6" target="gw6Gdv-FfUhg9unz1Tcw-13" edge="1">
          <mxGeometry relative="1" as="geometry">
            <mxPoint x="655" y="140" as="targetPoint" />
          </mxGeometry>
        </mxCell>
        <mxCell id="gw6Gdv-FfUhg9unz1Tcw-6" value="Server" style="rounded=0;whiteSpace=wrap;html=1;" parent="1" vertex="1">
          <mxGeometry x="410" y="100" width="120" height="200" as="geometry" />
        </mxCell>
        <mxCell id="gw6Gdv-FfUhg9unz1Tcw-13" value="Database" style="shape=cylinder3;whiteSpace=wrap;html=1;boundedLbl=1;backgroundOutline=1;size=15;" parent="1" vertex="1">
          <mxGeometry x="580" y="117.5" width="120" height="165" as="geometry" />
        </mxCell>
        <mxCell id="iCoxEldOFcv_246vnbyv-3" style="edgeStyle=orthogonalEdgeStyle;rounded=1;orthogonalLoop=1;jettySize=auto;html=1;exitX=0.07;exitY=0.4;exitDx=0;exitDy=0;exitPerimeter=0;entryX=1;entryY=0.5;entryDx=0;entryDy=0;curved=0;startArrow=classic;startFill=1;" edge="1" parent="1" source="iCoxEldOFcv_246vnbyv-2" target="gw6Gdv-FfUhg9unz1Tcw-1">
          <mxGeometry relative="1" as="geometry" />
        </mxCell>
        <mxCell id="iCoxEldOFcv_246vnbyv-4" style="edgeStyle=orthogonalEdgeStyle;rounded=1;orthogonalLoop=1;jettySize=auto;html=1;exitX=0.16;exitY=0.55;exitDx=0;exitDy=0;exitPerimeter=0;entryX=1;entryY=0.5;entryDx=0;entryDy=0;curved=0;startArrow=classic;startFill=1;" edge="1" parent="1" source="iCoxEldOFcv_246vnbyv-2" target="gw6Gdv-FfUhg9unz1Tcw-2">
          <mxGeometry relative="1" as="geometry" />
        </mxCell>
        <mxCell id="iCoxEldOFcv_246vnbyv-5" style="edgeStyle=orthogonalEdgeStyle;rounded=1;orthogonalLoop=1;jettySize=auto;html=1;exitX=0.13;exitY=0.77;exitDx=0;exitDy=0;exitPerimeter=0;curved=0;startArrow=classic;startFill=1;" edge="1" parent="1" source="iCoxEldOFcv_246vnbyv-2" target="gw6Gdv-FfUhg9unz1Tcw-3">
          <mxGeometry relative="1" as="geometry" />
        </mxCell>
        <mxCell id="iCoxEldOFcv_246vnbyv-6" style="edgeStyle=orthogonalEdgeStyle;rounded=1;orthogonalLoop=1;jettySize=auto;html=1;exitX=0.875;exitY=0.5;exitDx=0;exitDy=0;exitPerimeter=0;entryX=0;entryY=0.5;entryDx=0;entryDy=0;startArrow=classic;startFill=1;curved=0;" edge="1" parent="1" source="iCoxEldOFcv_246vnbyv-2" target="gw6Gdv-FfUhg9unz1Tcw-6">
          <mxGeometry relative="1" as="geometry" />
        </mxCell>
        <mxCell id="iCoxEldOFcv_246vnbyv-2" value="" style="ellipse;shape=cloud;whiteSpace=wrap;html=1;" vertex="1" parent="1">
          <mxGeometry x="245" y="120" width="140" height="160" as="geometry" />
        </mxCell>
      </root>
    </mxGraphModel>
  </diagram>
</mxfile>
